<svg xmlns="http://www.w3.org/2000/svg" viewBox="0 0 32 32" fill="none">
  <!-- Background circle -->
  <circle cx="16" cy="16" r="15" fill="#1D9E75"/>
  <!-- Leaf shape -->
  <path d="M16 6 C10 6 7 11 7 16 C7 22 12 26 16 26 C20 26 25 22 25 16 C25 11 22 6 16 6Z" fill="white" opacity="0.15"/>
  <!-- Simplified leaf/herb icon -->
  <path d="M16 8 C13 11 11 14 11 17 C11 20.3 13.2 23 16 24 C18.8 23 21 20.3 21 17 C21 14 19 11 16 8Z" fill="white"/>
  <!-- Stem -->
  <line x1="16" y1="24" x2="16" y2="28" stroke="white" stroke-width="1.5" stroke-linecap="round"/>
  <!-- Cross veins hint -->
  <path d="M14 15 C15 14.5 17 14.5 18 15" stroke="#1D9E75" stroke-width="1" stroke-linecap="round" opacity="0.6"/>
  <path d="M13 18 C14.5 17 17.5 17 19 18" stroke="#1D9E75" stroke-width="1" stroke-linecap="round" opacity="0.6"/>
</svg>
